<?xml version="1.0" standalone="no"?>
<!DOCTYPE svg PUBLIC "-//W3C//DTD SVG 20010904//EN"
 "http://www.w3.org/TR/2001/REC-SVG-20010904/DTD/svg10.dtd">
<svg version="1.0" xmlns="http://www.w3.org/2000/svg"
 width="90.000000pt" height="90.000000pt" viewBox="0 0 90.000000 90.000000"
 preserveAspectRatio="xMidYMid meet">
<metadata>
Created by potrace 1.14, written by Peter Selinger 2001-2017
</metadata>
<g transform="translate(0.000000,90.000000) scale(0.100000,-0.100000)"
fill="#000000" stroke="none">
<path d="M355 797 c-109 -37 -186 -103 -232 -202 -24 -51 -28 -73 -28 -145 0
-72 4 -94 28 -146 36 -77 104 -145 182 -181 51 -24 73 -28 145 -28 72 0 94 4
145 28 78 36 146 104 182 181 24 52 28 74 28 146 0 72 -4 94 -28 146 -57 123
-177 204 -311 211 -41 1 -88 -3 -111 -10z m220 -230 c102 -30 110 -34 110 -57
0 -23 -8 -27 -117 -59 l-118 -34 -117 34 c-110 32 -118 36 -118 59 0 23 8 27
105 56 58 18 114 33 125 33 11 0 70 -14 130 -32z m-50 -190 l75 21 0 -47 c0
-48 0 -48 -42 -60 -24 -7 -58 -21 -75 -32 -32 -18 -34 -18 -65 0 -18 11 -52
25 -75 32 -43 12 -43 12 -43 60 l0 47 75 -21 75 -20 75 20z"/>
</g>
</svg>
